<svg xmlns="http://www.w3.org/2000/svg" viewBox="0 0 242.34 30.09"><defs><style>.cls-1{fill:#fff;}.cls-2{fill:#fab314;}</style></defs><g id="Capa_2" data-name="Capa 2"><g id="Capa_1-2" data-name="Capa 1"><path class="cls-1" d="M0,0H19.25V5H7.2v3.7H18.38V13.4H7.2V18H19.6v5.26H0Z"/><path class="cls-1" d="M23.05,6.41h6V9.15a8.84,8.84,0,0,1,2.73-2.4A7.19,7.19,0,0,1,35.15,6a5.52,5.52,0,0,1,4.19,1.59,7,7,0,0,1,1.52,4.93v10.7H34.37V14a3.34,3.34,0,0,0-.59-2.24,2.09,2.09,0,0,0-1.65-.66,2.33,2.33,0,0,0-1.9.89,5.12,5.12,0,0,0-.73,3.18v8.09H23.05Z"/><path class="cls-1" d="M45,6.41h6.47V22.74A14.71,14.71,0,0,1,51,27.17a4.05,4.05,0,0,1-1.67,2.11,6.3,6.3,0,0,1-3.49.81,24.53,24.53,0,0,1-4.65-.56l1-4.69a7.1,7.1,0,0,0,1.14.16,1.49,1.49,0,0,0,1.26-.57A4,4,0,0,0,45,22.19ZM45,0h6.47V4.44H45Z"/><path class="cls-1" d="M54.74,14.88a8.39,8.39,0,0,1,2.6-6.35,9.68,9.68,0,0,1,7-2.5C67.74,6,70.28,7,72,9a8.54,8.54,0,0,1,2.08,5.82,8.45,8.45,0,0,1-2.58,6.37,9.84,9.84,0,0,1-7.13,2.48,10,10,0,0,1-6.57-2.06A8.27,8.27,0,0,1,54.74,14.88Zm6.47,0a5.07,5.07,0,0,0,.91,3.33,3,3,0,0,0,4.58,0,5.25,5.25,0,0,0,.9-3.41,4.92,4.92,0,0,0-.91-3.26,2.81,2.81,0,0,0-2.23-1.07,2.92,2.92,0,0,0-2.33,1.08A5,5,0,0,0,61.21,14.86Z"/><path class="cls-1" d="M74.78,6.41H81.6l3.47,11.21L88.3,6.41h6.36L88,24.41a10.79,10.79,0,0,1-2.33,4.15,7.39,7.39,0,0,1-5.12,1.53,37.9,37.9,0,0,1-4.31-.38L75.7,25.2a10.11,10.11,0,0,0,3.11.45,3,3,0,0,0,1.85-.53,4,4,0,0,0,1.19-1.87Z"/><path class="cls-1" d="M96.88,0h11.94q3.9,0,5.85,1.86a7,7,0,0,1,1.94,5.28,7.18,7.18,0,0,1-2.12,5.5c-1.41,1.32-3.57,2-6.46,2h-3.94v8.63H96.88Zm7.21,9.91h1.76a4.53,4.53,0,0,0,2.92-.72,2.33,2.33,0,0,0,.84-1.85,2.56,2.56,0,0,0-.73-1.85,3.76,3.76,0,0,0-2.74-.76h-2Z"/><path class="cls-1" d="M137.8,16.43h-13a4.17,4.17,0,0,0,.85,2.32,3,3,0,0,0,2.44,1.09,3.76,3.76,0,0,0,1.81-.47,4.19,4.19,0,0,0,1.12-1.07l6.36.59a9,9,0,0,1-3.52,3.64,12.69,12.69,0,0,1-5.91,1.1,12.13,12.13,0,0,1-5.27-.94,7.73,7.73,0,0,1-3.18-3,9.06,9.06,0,0,1-1.26-4.83,8.47,8.47,0,0,1,2.53-6.39,9.65,9.65,0,0,1,7-2.44,12.45,12.45,0,0,1,5.71,1.09,7.43,7.43,0,0,1,3.18,3.17,11.61,11.61,0,0,1,1.1,5.41Zm-6.57-3.09a4.3,4.3,0,0,0-1-2.68,3.15,3.15,0,0,0-4.6.41,4.52,4.52,0,0,0-.75,2.27Z"/><path class="cls-1" d="M140.83,6.41h6V9.17a6.53,6.53,0,0,1,1.8-2.47A3.79,3.79,0,0,1,151,6a6.75,6.75,0,0,1,3.13.89l-2,4.6a5.06,5.06,0,0,0-1.81-.48,2.23,2.23,0,0,0-2,1.05c-.66,1-1,2.82-1,5.52v5.64h-6.48Z"/><path class="cls-1" d="M174,23.25h-6V20.52a8.79,8.79,0,0,1-2.72,2.4,7.3,7.3,0,0,1-3.37.71A5.49,5.49,0,0,1,157.71,22a6.91,6.91,0,0,1-1.51-4.91V6.41h6.48v9.26a3.39,3.39,0,0,0,.59,2.25,2.06,2.06,0,0,0,1.65.67,2.35,2.35,0,0,0,1.89-.89,5.06,5.06,0,0,0,.74-3.19V6.41H174Z"/><path class="cls-2" d="M177.66,20.65a3.19,3.19,0,1,1,6.37,0,3.19,3.19,0,0,1-6.37,0Z"/><path class="cls-1" d="M186.88,14.88a8.39,8.39,0,0,1,2.6-6.35,9.7,9.7,0,0,1,7-2.5q5.06,0,7.64,2.93a8.49,8.49,0,0,1,2.08,5.82,8.45,8.45,0,0,1-2.58,6.37,9.82,9.82,0,0,1-7.13,2.48A10,10,0,0,1,190,21.57,8.27,8.27,0,0,1,186.88,14.88Zm6.47,0a5.07,5.07,0,0,0,.91,3.33,3,3,0,0,0,4.59,0,5.32,5.32,0,0,0,.89-3.41,5,5,0,0,0-.9-3.26,2.84,2.84,0,0,0-2.24-1.07,2.92,2.92,0,0,0-2.33,1.08A5.07,5.07,0,0,0,193.35,14.86Z"/><path class="cls-1" d="M209.4,6.41h6V9.17a6.53,6.53,0,0,1,1.8-2.47A3.81,3.81,0,0,1,219.53,6a6.71,6.71,0,0,1,3.13.89l-2,4.6a5,5,0,0,0-1.81-.48,2.22,2.22,0,0,0-2,1.05q-1,1.47-1,5.52v5.64H209.4Z"/><path class="cls-1" d="M236.28,6.41h6.05V23.06a7,7,0,0,1-.67,3,6.48,6.48,0,0,1-1.79,2.33A7.08,7.08,0,0,1,237,29.69a17.31,17.31,0,0,1-3.94.4c-3.39,0-5.71-.51-7-1.52a5,5,0,0,1-1.89-4.08c0-.21,0-.5,0-.86l6.27.72a2,2,0,0,0,.73,1.2,3,3,0,0,0,1.79.49,2.72,2.72,0,0,0,2.08-.74,3.84,3.84,0,0,0,.69-2.6V20.14a6.65,6.65,0,0,1-1.9,1.64,6.73,6.73,0,0,1-3.22.79,6.39,6.39,0,0,1-5.46-2.95,9.46,9.46,0,0,1-1.47-5.54,8.51,8.51,0,0,1,1.9-6,6.44,6.44,0,0,1,5-2.06,7.07,7.07,0,0,1,3.25.66,7.09,7.09,0,0,1,2.38,2.21Zm-6.07,8.17a4,4,0,0,0,.78,2.7,2.75,2.75,0,0,0,4.06,0,4,4,0,0,0,.82-2.75,4.15,4.15,0,0,0-.85-2.82,2.7,2.7,0,0,0-2.1-1,2.41,2.41,0,0,0-2,.89A4.67,4.67,0,0,0,230.21,14.58Z"/></g></g></svg>