<svg xmlns="http://www.w3.org/2000/svg" viewBox="0 0 189.99 47.55"><defs><style>.cls-1{fill:#fff;}.cls-2{fill:#d37900;}</style></defs><g id="Capa_2" data-name="Capa 2"><g id="Capa_1-2" data-name="Capa 1"><path class="cls-1" d="M34,25.65V21.71h9v8.07a18.42,18.42,0,0,1-4.58,2.41,15.46,15.46,0,0,1-4.73.64,11.48,11.48,0,0,1-5.5-1.15,7.94,7.94,0,0,1-3.29-3.42A11.24,11.24,0,0,1,23.73,23,10.87,10.87,0,0,1,25,17.66a8.26,8.26,0,0,1,3.74-3.48,12.23,12.23,0,0,1,5.18-.92,14.45,14.45,0,0,1,4.69.57,6,6,0,0,1,2.58,1.76,7.89,7.89,0,0,1,1.55,3l-5.64,1A3.1,3.1,0,0,0,35.92,18a3.73,3.73,0,0,0-2.12-.56,3.82,3.82,0,0,0-3.06,1.33A6.38,6.38,0,0,0,29.59,23c0,2.05.39,3.51,1.16,4.39A4,4,0,0,0,34,28.69a6.1,6.1,0,0,0,1.87-.29,10.16,10.16,0,0,0,2-1V25.65Z"/><path class="cls-1" d="M60.57,32.51h-4.9V30.29a7.23,7.23,0,0,1-2.22,2,5.94,5.94,0,0,1-2.74.58,4.49,4.49,0,0,1-3.4-1.3,5.65,5.65,0,0,1-1.23-4V18.8h5.28v7.54a2.81,2.81,0,0,0,.47,1.83,1.71,1.71,0,0,0,1.35.54A1.92,1.92,0,0,0,54.72,28a4.18,4.18,0,0,0,.6-2.6V18.8h5.25Z"/><path class="cls-1" d="M64,13.58h5.26v3.58H64Zm0,5.22h5.26V32.51H64Z"/><path class="cls-1" d="M78.9,13.58V18.8h2.89v3.84H78.9V27.5a2.62,2.62,0,0,0,.17,1.16,1,1,0,0,0,.9.44,5.6,5.6,0,0,0,1.63-.34L82,32.39a17.44,17.44,0,0,1-3.64.43,6.24,6.24,0,0,1-2.89-.51,3.06,3.06,0,0,1-1.38-1.52,9,9,0,0,1-.44-3.32V22.64H71.7V18.8h1.94V16.28Z"/><path class="cls-1" d="M89.09,23.24l-5-.53a5.39,5.39,0,0,1,.82-2.07,4.38,4.38,0,0,1,1.54-1.31,6.15,6.15,0,0,1,2-.62,15.56,15.56,0,0,1,2.73-.22,22.53,22.53,0,0,1,3.8.26,4.88,4.88,0,0,1,2.38,1.11,3.71,3.71,0,0,1,1.06,1.64,5.93,5.93,0,0,1,.39,2v6.05a7.56,7.56,0,0,0,.12,1.52,7.27,7.27,0,0,0,.54,1.4H94.51a5.42,5.42,0,0,1-.39-.81,6.32,6.32,0,0,1-.18-.87,7,7,0,0,1-2,1.42,8.52,8.52,0,0,1-3.24.57,5.42,5.42,0,0,1-3.73-1.14,3.63,3.63,0,0,1-1.27-2.8,3.68,3.68,0,0,1,.92-2.57A6.23,6.23,0,0,1,88,24.81c2-.39,3.25-.67,3.83-.83a17,17,0,0,0,1.86-.63,1.83,1.83,0,0,0-.4-1.35,2,2,0,0,0-1.4-.39A3.71,3.71,0,0,0,89.9,22,2.22,2.22,0,0,0,89.09,23.24ZM93.64,26a21.3,21.3,0,0,1-2.26.68,5.38,5.38,0,0,0-2,.84,1.34,1.34,0,0,0-.44,1,1.33,1.33,0,0,0,.43,1,1.84,1.84,0,0,0,1.27.39,3.24,3.24,0,0,0,1.64-.43,2.56,2.56,0,0,0,1.07-1,3.49,3.49,0,0,0,.31-1.59Z"/><path class="cls-1" d="M102,18.8h4.92V21a5.19,5.19,0,0,1,1.47-2,3,3,0,0,1,1.86-.55,5.57,5.57,0,0,1,2.54.72L111.15,23a4.26,4.26,0,0,0-1.48-.38,1.82,1.82,0,0,0-1.6.85c-.54.8-.81,2.3-.81,4.49v4.6H102Z"/><path class="cls-2" d="M122.76,13.58h7.69l3,11.52,2.94-11.52h7.69V32.51h-4.79V18.07l-3.69,14.44h-4.33l-3.69-14.44V32.51h-4.79Z"/><path class="cls-2" d="M162.71,23.3l4.11.92A15.65,15.65,0,0,1,166.2,26a16.09,16.09,0,0,1-.84,1.61l2,1.36c.24.15.55.34.92.55l-2.82,3.26c-.52-.28-1.05-.6-1.61-1s-1.05-.67-1.49-.93a10.58,10.58,0,0,1-2.74,1.32,15,15,0,0,1-4.31.57q-3.78,0-5.63-1.58a4.84,4.84,0,0,1-1.84-3.82,5,5,0,0,1,1.08-3.05,8.26,8.26,0,0,1,3.55-2.44A9.07,9.07,0,0,1,151,19.76a4.79,4.79,0,0,1-.38-1.88,4.18,4.18,0,0,1,1.53-3.32,7.08,7.08,0,0,1,4.66-1.3,7.27,7.27,0,0,1,4.69,1.24,3.77,3.77,0,0,1,1.49,3,4.11,4.11,0,0,1-.45,1.86,4.84,4.84,0,0,1-1.11,1.44,26.86,26.86,0,0,1-2.31,1.66A33,33,0,0,0,162,25,11,11,0,0,0,162.71,23.3Zm-7.91,1.28a5.82,5.82,0,0,0-1.44,1.3A2.15,2.15,0,0,0,153,27a2.22,2.22,0,0,0,.81,1.68,3,3,0,0,0,2.12.74,6.13,6.13,0,0,0,3.16-1.1Q157.42,27.06,154.8,24.58ZM156.67,20a5.6,5.6,0,0,0,1.58-1.21,2,2,0,0,0,.55-1.23,1.33,1.33,0,0,0-.46-1,1.85,1.85,0,0,0-1.28-.42,1.88,1.88,0,0,0-1.3.46,1.45,1.45,0,0,0-.51,1.1A4.33,4.33,0,0,0,156.67,20Z"/><path class="cls-2" d="M182.92,29.38h-6.64l-.92,3.13h-6l7.11-18.93h6.38L190,32.51h-6.12Zm-1.21-4.09-2.09-6.8-2.07,6.8Z"/><path class="cls-1" d="M24.25,47V37.93h1.83V47Z"/><path class="cls-1" d="M27.84,47V37.93h1.79L33.34,44V37.93h1.71V47H33.21l-3.66-5.92V47Z"/><path class="cls-1" d="M36.52,44.06l1.78-.17A2.24,2.24,0,0,0,39,45.21a2,2,0,0,0,1.33.42,2,2,0,0,0,1.33-.38,1.11,1.11,0,0,0,.45-.87.8.8,0,0,0-.19-.55,1.66,1.66,0,0,0-.66-.4q-.31-.1-1.47-.39a5,5,0,0,1-2.07-.9,2.39,2.39,0,0,1-.83-1.83A2.32,2.32,0,0,1,37.24,39a2.41,2.41,0,0,1,1.13-.92,4.58,4.58,0,0,1,1.79-.32,3.81,3.81,0,0,1,2.57.75,2.64,2.64,0,0,1,.91,2l-1.83.08a1.57,1.57,0,0,0-.51-1,1.85,1.85,0,0,0-1.16-.3,2.09,2.09,0,0,0-1.25.33.66.66,0,0,0-.29.56.7.7,0,0,0,.27.55,4.93,4.93,0,0,0,1.69.61,9.26,9.26,0,0,1,2,.65,2.61,2.61,0,0,1,1,.92,2.74,2.74,0,0,1,.36,1.45,2.65,2.65,0,0,1-.43,1.46,2.56,2.56,0,0,1-1.23,1,5.13,5.13,0,0,1-2,.33,4,4,0,0,1-2.65-.79A3.47,3.47,0,0,1,36.52,44.06Z"/><path class="cls-1" d="M47.49,47V39.47h-2.7V37.93H52v1.54H49.32V47Z"/><path class="cls-1" d="M53.2,47V37.93h3.86a6.63,6.63,0,0,1,2.11.25,2.09,2.09,0,0,1,1.06.87,2.64,2.64,0,0,1,.39,1.43,2.44,2.44,0,0,1-.6,1.69,2.93,2.93,0,0,1-1.79.84,4.32,4.32,0,0,1,1,.76,10.93,10.93,0,0,1,1,1.47L61.36,47H59.17l-1.33-2a14.24,14.24,0,0,0-1-1.34,1.37,1.37,0,0,0-.56-.37,2.88,2.88,0,0,0-.92-.11H55V47ZM55,41.77h1.36A6.59,6.59,0,0,0,58,41.66a1,1,0,0,0,.52-.38,1.21,1.21,0,0,0,.18-.68,1,1,0,0,0-.93-1.1c-.15,0-.6,0-1.34,0H55Z"/><path class="cls-1" d="M62.34,37.93h1.83v4.92a9.53,9.53,0,0,0,.07,1.52,1.43,1.43,0,0,0,.56.89A1.91,1.91,0,0,0,66,45.6a1.82,1.82,0,0,0,1.18-.32,1.24,1.24,0,0,0,.47-.78A9.4,9.4,0,0,0,67.74,43v-5h1.84V42.7A12.14,12.14,0,0,1,69.43,45a2.53,2.53,0,0,1-.55,1.14,2.73,2.73,0,0,1-1.07.74,4.49,4.49,0,0,1-1.74.28,5.07,5.07,0,0,1-2-.3A2.87,2.87,0,0,1,63,46.09a2.48,2.48,0,0,1-.51-1,11,11,0,0,1-.18-2.3Z"/><path class="cls-1" d="M71.49,47V37.93h2.74l1.65,6.2,1.62-6.2h2.75V47h-1.7V39.87L76.75,47H75l-1.79-7.14V47Z"/><path class="cls-1" d="M82.07,47V37.93h6.74v1.54h-4.9v2h4.56V43H83.91v2.47H89V47Z"/><path class="cls-1" d="M90.55,47V37.93h1.79L96.05,44V37.93h1.71V47H95.92l-3.66-5.92V47Z"/><path class="cls-1" d="M101.74,47V39.47H99V37.93h7.22v1.54h-2.69V47Z"/><path class="cls-1" d="M106.84,42.53a5.74,5.74,0,0,1,.42-2.33A4,4,0,0,1,108.1,39a3.61,3.61,0,0,1,1.17-.82,5,5,0,0,1,2-.36A4.25,4.25,0,0,1,114.44,39a4.76,4.76,0,0,1,1.21,3.47,4.76,4.76,0,0,1-1.2,3.44,4.76,4.76,0,0,1-6.41,0A4.66,4.66,0,0,1,106.84,42.53Zm1.89-.06a3.43,3.43,0,0,0,.71,2.34,2.33,2.33,0,0,0,1.81.79,2.29,2.29,0,0,0,1.8-.79,3.44,3.44,0,0,0,.7-2.37,3.47,3.47,0,0,0-.68-2.33,2.32,2.32,0,0,0-1.82-.76,2.35,2.35,0,0,0-1.83.77A3.45,3.45,0,0,0,108.73,42.47Z"/><path class="cls-1" d="M116.61,44.06l1.79-.17a2.18,2.18,0,0,0,.65,1.32,2,2,0,0,0,1.33.42,2,2,0,0,0,1.33-.38,1.11,1.11,0,0,0,.45-.87.8.8,0,0,0-.19-.55,1.53,1.53,0,0,0-.66-.4c-.21-.07-.7-.2-1.46-.39a4.92,4.92,0,0,1-2.07-.9,2.36,2.36,0,0,1-.84-1.83,2.32,2.32,0,0,1,.39-1.29,2.44,2.44,0,0,1,1.14-.92,4.53,4.53,0,0,1,1.78-.32,3.86,3.86,0,0,1,2.58.75,2.64,2.64,0,0,1,.9,2l-1.83.08a1.62,1.62,0,0,0-.5-1,1.89,1.89,0,0,0-1.16-.3,2.12,2.12,0,0,0-1.26.33.66.66,0,0,0-.29.56.68.68,0,0,0,.28.55,4.84,4.84,0,0,0,1.68.61,9.26,9.26,0,0,1,2,.65,2.54,2.54,0,0,1,1,.92,2.74,2.74,0,0,1,.36,1.45,2.65,2.65,0,0,1-.43,1.46,2.58,2.58,0,0,1-1.22,1,5.19,5.19,0,0,1-2,.33,3.91,3.91,0,0,1-2.64-.79A3.44,3.44,0,0,1,116.61,44.06Z"/><path class="cls-1" d="M128.85,44.59V42.85h3.42v1.74Z"/><path class="cls-1" d="M142.62,43.68l1.77.56A4,4,0,0,1,143,46.45a4.27,4.27,0,0,1-5.38-.52,4.7,4.7,0,0,1-1.16-3.38A5,5,0,0,1,137.66,39a4,4,0,0,1,3.07-1.25,3.81,3.81,0,0,1,2.71,1,3.66,3.66,0,0,1,.93,1.68l-1.82.43a1.88,1.88,0,0,0-1.91-1.52,2.08,2.08,0,0,0-1.64.72,3.55,3.55,0,0,0-.63,2.35,3.82,3.82,0,0,0,.62,2.45,2,2,0,0,0,1.61.73,1.83,1.83,0,0,0,1.26-.46A2.77,2.77,0,0,0,142.62,43.68Z"/><path class="cls-1" d="M146,37.93h1.84v4.92a9.53,9.53,0,0,0,.07,1.52,1.39,1.39,0,0,0,.56.89,1.89,1.89,0,0,0,1.21.34,1.78,1.78,0,0,0,1.17-.32,1.21,1.21,0,0,0,.48-.78,10.71,10.71,0,0,0,.08-1.54v-5h1.83V42.7a13.33,13.33,0,0,1-.14,2.31,2.64,2.64,0,0,1-.55,1.14,2.8,2.8,0,0,1-1.07.74,4.55,4.55,0,0,1-1.75.28,5.05,5.05,0,0,1-2-.3,2.79,2.79,0,0,1-1.06-.78,2.64,2.64,0,0,1-.52-1,11,11,0,0,1-.18-2.3Z"/><path class="cls-1" d="M155.13,47V37.93H159a6.7,6.7,0,0,1,2.12.25,2,2,0,0,1,1,.87,2.57,2.57,0,0,1,.4,1.43,2.44,2.44,0,0,1-.6,1.69,2.93,2.93,0,0,1-1.8.84,4.11,4.11,0,0,1,1,.76,10.78,10.78,0,0,1,1.05,1.47l1.1,1.77H161.1l-1.32-2a13.67,13.67,0,0,0-1-1.34,1.34,1.34,0,0,0-.55-.37,2.88,2.88,0,0,0-.92-.11H157V47ZM157,41.77h1.35a6.75,6.75,0,0,0,1.65-.11.94.94,0,0,0,.51-.38,1.14,1.14,0,0,0,.19-.68,1.05,1.05,0,0,0-.25-.74,1.1,1.1,0,0,0-.69-.36c-.14,0-.59,0-1.33,0H157Z"/><path class="cls-1" d="M163.82,44.06l1.78-.17a2.24,2.24,0,0,0,.66,1.32,2,2,0,0,0,1.33.42,2,2,0,0,0,1.33-.38,1.11,1.11,0,0,0,.45-.87.8.8,0,0,0-.19-.55,1.53,1.53,0,0,0-.66-.4q-.32-.1-1.47-.39a4.93,4.93,0,0,1-2.06-.9,2.36,2.36,0,0,1-.84-1.83,2.32,2.32,0,0,1,.39-1.29,2.39,2.39,0,0,1,1.14-.92,4.5,4.5,0,0,1,1.78-.32,3.86,3.86,0,0,1,2.58.75,2.67,2.67,0,0,1,.9,2l-1.83.08a1.62,1.62,0,0,0-.5-1,1.9,1.9,0,0,0-1.17-.3,2.09,2.09,0,0,0-1.25.33.66.66,0,0,0-.29.56.7.7,0,0,0,.27.55,5,5,0,0,0,1.69.61,9.26,9.26,0,0,1,2,.65,2.61,2.61,0,0,1,1,.92,2.74,2.74,0,0,1,.36,1.45,2.65,2.65,0,0,1-.43,1.46,2.56,2.56,0,0,1-1.23,1,5.13,5.13,0,0,1-2,.33,4,4,0,0,1-2.65-.79A3.47,3.47,0,0,1,163.82,44.06Z"/><path class="cls-1" d="M172.37,42.53a5.74,5.74,0,0,1,.42-2.33,4.18,4.18,0,0,1,.84-1.24,3.55,3.55,0,0,1,1.18-.82,5,5,0,0,1,1.95-.36A4.29,4.29,0,0,1,180,39a4.8,4.8,0,0,1,1.2,3.47,4.76,4.76,0,0,1-1.2,3.44,4.76,4.76,0,0,1-6.41,0A4.66,4.66,0,0,1,172.37,42.53Zm1.89-.06a3.43,3.43,0,0,0,.71,2.34,2.33,2.33,0,0,0,1.81.79,2.29,2.29,0,0,0,1.8-.79,3.44,3.44,0,0,0,.7-2.37,3.41,3.41,0,0,0-.68-2.33,2.55,2.55,0,0,0-3.64,0A3.4,3.4,0,0,0,174.26,42.47Z"/><path class="cls-1" d="M182.15,44.06l1.78-.17a2.23,2.23,0,0,0,.65,1.32,2,2,0,0,0,1.33.42,2.06,2.06,0,0,0,1.34-.38,1.11,1.11,0,0,0,.45-.87.85.85,0,0,0-.19-.55,1.66,1.66,0,0,0-.66-.4q-.33-.1-1.47-.39a5,5,0,0,1-2.07-.9,2.36,2.36,0,0,1-.84-1.83,2.33,2.33,0,0,1,.4-1.29A2.41,2.41,0,0,1,184,38.1a4.55,4.55,0,0,1,1.79-.32,3.83,3.83,0,0,1,2.57.75,2.64,2.64,0,0,1,.91,2l-1.84.08a1.52,1.52,0,0,0-.5-1,1.89,1.89,0,0,0-1.16-.3,2.09,2.09,0,0,0-1.25.33.63.63,0,0,0-.29.56.7.7,0,0,0,.27.55,4.84,4.84,0,0,0,1.68.61,8.88,8.88,0,0,1,2,.65,2.64,2.64,0,0,1,1,.92,2.74,2.74,0,0,1,.36,1.45,2.66,2.66,0,0,1-.44,1.46,2.49,2.49,0,0,1-1.22,1,5.19,5.19,0,0,1-2,.33,3.91,3.91,0,0,1-2.64-.79A3.43,3.43,0,0,1,182.15,44.06Z"/><path class="cls-1" d="M8.52,1.49a2.71,2.71,0,0,0,.39.3c.56.32.93.15,1.06-.48.06-.32.09-.66.17-1s.25-.42.54-.27a6.5,6.5,0,0,1,.68.42.55.55,0,0,1,.22.6,26.54,26.54,0,0,0,0,7.34,20.26,20.26,0,0,0,.58,2.11,2.32,2.32,0,0,0-.35.22,2.12,2.12,0,0,0-.83,1.88c.09,3.65.2,7.3.27,10.94a7.91,7.91,0,0,0,.66,3.4,4.06,4.06,0,0,0,1.73,1.84,1.56,1.56,0,0,0,1.85-.22,4.57,4.57,0,0,0,1.39-2.17c.27-.83.45-1.69.67-2.53a3.33,3.33,0,0,1,1.59,2.9,5.24,5.24,0,0,1-.83,2.64,8.58,8.58,0,0,0-1.11,2.3,7.25,7.25,0,0,0,.55,4.54c.48,1.16,1.07,2.29,1.54,3.46A6.18,6.18,0,0,1,19.09,45,4.09,4.09,0,0,1,16,47.15a20.55,20.55,0,0,1-3.58.4c-2.36,0-4.73,0-7.1-.12a8.5,8.5,0,0,1-2.46-.55,4.3,4.3,0,0,1-2.84-4A8.39,8.39,0,0,1,.9,38.73c.48-1.18,1-2.35,1.57-3.49A7.25,7.25,0,0,0,3,29.78q-.69-2.52-1.19-5.08a4.63,4.63,0,0,1,.85-3.89,4.55,4.55,0,0,1,1.41-1.19c0,.9-.13,1.79-.1,2.68a5,5,0,0,0,1.66,3.78A1.42,1.42,0,0,0,8,25.62a1.09,1.09,0,0,0,.07-.4q.21-6.57.4-13.13a1.1,1.1,0,0,0-.24-.64A1.86,1.86,0,0,0,7.74,11c-.58-.36-.58-.36-.48-1Q7.85,5.9,8.45,1.84a2.71,2.71,0,0,0,0-.29Z"/></g></g></svg>